<svg xmlns="http://www.w3.org/2000/svg" viewBox="0 8.859999656677246 225.07000732421875 46.34000015258789" data-asc="0.9052734375"><g fill="#ffffff"><g fill="#ffffff" transform="translate(0, 0)"><path d="M0 45.26L0 9.47L4.74 9.47L4.74 41.04L22.36 41.04L22.36 45.26L0 45.26ZM44.36 42.07Q41.92 44.14 39.66 45.00Q37.40 45.85 34.81 45.85Q30.54 45.85 28.25 43.76Q25.95 41.67 25.95 38.43Q25.95 36.52 26.82 34.95Q27.69 33.37 29.09 32.42Q30.49 31.47 32.25 30.98Q33.54 30.64 36.16 30.32Q41.48 29.69 43.99 28.81Q44.02 27.91 44.02 27.66Q44.02 24.98 42.77 23.88Q41.09 22.39 37.77 22.39Q34.67 22.39 33.19 23.47Q31.71 24.56 31.01 27.32L26.71 26.73Q27.29 23.97 28.64 22.28Q29.98 20.58 32.52 19.67Q35.06 18.75 38.40 18.75Q41.72 18.75 43.80 19.53Q45.87 20.31 46.85 21.50Q47.83 22.68 48.22 24.49Q48.44 25.61 48.44 28.54L48.44 34.40Q48.44 40.53 48.72 42.15Q49.00 43.77 49.83 45.26L45.24 45.26Q44.56 43.90 44.36 42.07M43.99 32.25Q41.60 33.23 36.82 33.91Q34.11 34.30 32.98 34.79Q31.86 35.28 31.25 36.22Q30.64 37.16 30.64 38.31Q30.64 40.06 31.97 41.24Q33.30 42.41 35.86 42.41Q38.40 42.41 40.38 41.30Q42.36 40.19 43.29 38.26Q43.99 36.77 43.99 33.86L43.99 32.25ZM55.20 45.26L55.20 19.34L59.16 19.34L59.16 23.27Q60.67 20.51 61.95 19.63Q63.23 18.75 64.77 18.75Q66.99 18.75 69.29 20.17L67.77 24.24Q66.16 23.29 64.55 23.29Q63.11 23.29 61.96 24.16Q60.82 25.02 60.33 26.56Q59.59 28.91 59.59 31.69L59.59 45.26L55.20 45.26ZM88.82 42.07Q86.38 44.14 84.12 45.00Q81.86 45.85 79.27 45.85Q75 45.85 72.71 43.76Q70.41 41.67 70.41 38.43Q70.41 36.52 71.28 34.95Q72.14 33.37 73.55 32.42Q74.95 31.47 76.71 30.98Q78.00 30.64 80.62 30.32Q85.94 29.69 88.45 28.81Q88.48 27.91 88.48 27.66Q88.48 24.98 87.23 23.88Q85.55 22.39 82.23 22.39Q79.13 22.39 77.65 23.47Q76.17 24.56 75.46 27.32L71.17 26.73Q71.75 23.97 73.10 22.28Q74.44 20.58 76.98 19.67Q79.52 18.75 82.86 18.75Q86.18 18.75 88.26 19.53Q90.33 20.31 91.31 21.50Q92.29 22.68 92.68 24.49Q92.90 25.61 92.90 28.54L92.90 34.40Q92.90 40.53 93.18 42.15Q93.46 43.77 94.29 45.26L89.70 45.26Q89.01 43.90 88.82 42.07M88.45 32.25Q86.06 33.23 81.27 33.91Q78.56 34.30 77.44 34.79Q76.32 35.28 75.71 36.22Q75.10 37.16 75.10 38.31Q75.10 40.06 76.43 41.24Q77.76 42.41 80.32 42.41Q82.86 42.41 84.84 41.30Q86.82 40.19 87.74 38.26Q88.45 36.77 88.45 33.86L88.45 32.25ZM112.55 33.76L117.02 33.37Q117.33 36.06 118.49 37.78Q119.65 39.50 122.09 40.56Q124.54 41.63 127.59 41.63Q130.30 41.63 132.37 40.82Q134.45 40.01 135.46 38.61Q136.47 37.21 136.47 35.55Q136.47 33.86 135.50 32.60Q134.52 31.35 132.28 30.49Q130.83 29.93 125.90 28.75Q120.97 27.56 118.99 26.51Q116.43 25.17 115.17 23.18Q113.92 21.19 113.92 18.73Q113.92 16.02 115.45 13.66Q116.99 11.30 119.95 10.08Q122.90 8.86 126.51 8.86Q130.49 8.86 133.53 10.14Q136.57 11.43 138.21 13.92Q139.84 16.41 139.97 19.56L135.42 19.90Q135.06 16.50 132.95 14.77Q130.83 13.04 126.71 13.04Q122.41 13.04 120.45 14.61Q118.48 16.19 118.48 18.41Q118.48 20.34 119.87 21.58Q121.24 22.83 127.01 24.13Q132.79 25.44 134.94 26.42Q138.06 27.86 139.55 30.07Q141.04 32.28 141.04 35.16Q141.04 38.01 139.40 40.54Q137.77 43.07 134.70 44.47Q131.64 45.87 127.81 45.87Q122.95 45.87 119.67 44.46Q116.38 43.04 114.51 40.20Q112.65 37.35 112.55 33.76ZM146.95 45.26L146.95 9.47L151.34 9.47L151.34 22.31Q154.42 18.75 159.11 18.75Q161.99 18.75 164.11 19.89Q166.24 21.02 167.15 23.02Q168.07 25.02 168.07 28.83L168.07 45.26L163.67 45.26L163.67 28.83Q163.67 25.54 162.24 24.04Q160.82 22.53 158.20 22.53Q156.25 22.53 154.53 23.55Q152.81 24.56 152.08 26.29Q151.34 28.03 151.34 31.08L151.34 45.26L146.95 45.26ZM173.12 32.30Q173.12 25.10 177.12 21.63Q180.47 18.75 185.28 18.75Q190.63 18.75 194.02 22.25Q197.41 25.76 197.41 31.93Q197.41 36.94 195.91 39.81Q194.41 42.68 191.54 44.26Q188.67 45.85 185.28 45.85Q179.83 45.85 176.48 42.36Q173.12 38.87 173.12 32.30M177.64 32.30Q177.64 37.28 179.81 39.76Q181.98 42.24 185.28 42.24Q188.55 42.24 190.72 39.75Q192.90 37.26 192.90 32.15Q192.90 27.34 190.71 24.87Q188.53 22.39 185.28 22.39Q181.98 22.39 179.81 24.85Q177.64 27.32 177.64 32.30ZM202.56 55.20L202.56 19.34L206.57 19.34L206.57 22.71Q207.98 20.73 209.77 19.74Q211.55 18.75 214.09 18.75Q217.41 18.75 219.95 20.46Q222.49 22.17 223.78 25.28Q225.07 28.39 225.07 32.10Q225.07 36.08 223.65 39.27Q222.22 42.46 219.49 44.15Q216.77 45.85 213.77 45.85Q211.57 45.85 209.83 44.92Q208.08 43.99 206.96 42.58L206.96 55.20L202.56 55.20M206.54 32.45Q206.54 37.45 208.57 39.84Q210.60 42.24 213.48 42.24Q216.41 42.24 218.49 39.76Q220.58 37.28 220.58 32.08Q220.58 27.12 218.54 24.66Q216.50 22.19 213.67 22.19Q210.86 22.19 208.70 24.82Q206.54 27.44 206.54 32.45Z"/></g><g fill="#ffffff" transform="translate(0, 60.595703125)"><path d=""/></g></g></svg>